# xmcd
#
# Track frame offsets: 
#        150
#        12665
#        29402
#        43700
#        62510
#        77160
#        96342
#        121745
#        147770
#        165667
#
# Disc length: 2755 seconds
#
# Revision: 2
# Processed by: cddbd v1.5.2PL0 Copyright (c) Steve Scherf et al.
# Submitted via: ExactAudioCopy v0.95a4
#
DISCID=7f0ac10a
DTITLE=Jo-El Sonnier - Live In Canada
DYEAR=1996
DGENRE=Country
TTITLE0=So Long Baby Goodbye
TTITLE1=Big Mamou
TTITLE2=Jolie Blon
TTITLE3=Jambalaya (On The Bayou)
TTITLE4=Johnny B. Goode
TTITLE5=Rainin' In My Heart
TTITLE6=Sugar Bee
TTITLE7=Tear Stained Letter
TTITLE8=Jolie Blon (solo)
TTITLE9=Interview with Jo-El Sonnier and Cajun Accordian demonstation
EXTD=
EXTT0=
EXTT1=
EXTT2=
EXTT3=
EXTT4=
EXTT5=
EXTT6=
EXTT7=
EXTT8=
EXTT9=
PLAYORDER=
